<mxfile host="app.diagrams.net" modified="2023-07-17T19:57:44.247Z" agent="Mozilla/5.0 (Windows NT 10.0; Win64; x64) AppleWebKit/537.36 (KHTML, like Gecko) Chrome/114.0.0.0 Safari/537.36 Edg/114.0.1823.79" etag="zhRfyHKaDFPLxf17UgeJ" version="21.6.2" type="github">
  <diagram id="C5RBs43oDa-KdzZeNtuy" name="Page-1">
    <mxGraphModel dx="996" dy="645" grid="1" gridSize="10" guides="1" tooltips="1" connect="1" arrows="1" fold="1" page="1" pageScale="1" pageWidth="827" pageHeight="1169" math="0" shadow="0">
      <root>
        <mxCell id="WIyWlLk6GJQsqaUBKTNV-0" />
        <mxCell id="WIyWlLk6GJQsqaUBKTNV-1" parent="WIyWlLk6GJQsqaUBKTNV-0" />
        <UserObject label="Workflow_Citrix_Catalog_Update" id="nvEJAA1esfdf5cPtqJe0-1">
          <mxCell style="swimlane;whiteSpace=wrap;html=1;" parent="WIyWlLk6GJQsqaUBKTNV-1" vertex="1">
            <mxGeometry width="820" height="1140" as="geometry" />
          </mxCell>
        </UserObject>
        <mxCell id="nvEJAA1esfdf5cPtqJe0-2" value="Seal Script successful?" style="rhombus;whiteSpace=wrap;html=1;shadow=0;fontFamily=Helvetica;fontSize=12;align=center;strokeWidth=1;spacing=6;spacingTop=-4;fillColor=#dae8fc;strokeColor=#6c8ebf;" parent="nvEJAA1esfdf5cPtqJe0-1" vertex="1">
          <mxGeometry x="690" y="520" width="100" height="80" as="geometry" />
        </mxCell>
        <mxCell id="nvEJAA1esfdf5cPtqJe0-3" value="" style="rounded=0;html=1;jettySize=auto;orthogonalLoop=1;fontSize=11;endArrow=block;endFill=0;endSize=8;strokeWidth=1;shadow=0;labelBackgroundColor=none;edgeStyle=orthogonalEdgeStyle;entryX=0.5;entryY=0;entryDx=0;entryDy=0;exitX=0.5;exitY=1;exitDx=0;exitDy=0;" parent="nvEJAA1esfdf5cPtqJe0-1" source="nvEJAA1esfdf5cPtqJe0-10" target="nvEJAA1esfdf5cPtqJe0-2" edge="1">
          <mxGeometry relative="1" as="geometry">
            <mxPoint x="840" y="497.5" as="sourcePoint" />
            <mxPoint x="550" y="317.5" as="targetPoint" />
          </mxGeometry>
        </mxCell>
        <mxCell id="nvEJAA1esfdf5cPtqJe0-7" value="VM Powered off?" style="rhombus;whiteSpace=wrap;html=1;shadow=0;fontFamily=Helvetica;fontSize=12;align=center;strokeWidth=1;spacing=6;spacingTop=-4;fillColor=#dae8fc;strokeColor=#6c8ebf;" parent="nvEJAA1esfdf5cPtqJe0-1" vertex="1">
          <mxGeometry x="690" y="760" width="100" height="80" as="geometry" />
        </mxCell>
        <mxCell id="nvEJAA1esfdf5cPtqJe0-8" value="&lt;p class=&quot;MsoNormal&quot;&gt;Play run to send API to SNOW as unsuccessful&lt;/p&gt;" style="rounded=1;whiteSpace=wrap;html=1;fontSize=12;glass=0;strokeWidth=1;shadow=0;fillColor=#d5e8d4;strokeColor=#82b366;" parent="nvEJAA1esfdf5cPtqJe0-1" vertex="1">
          <mxGeometry x="500" y="432.5" width="120" height="40" as="geometry" />
        </mxCell>
        <mxCell id="nvEJAA1esfdf5cPtqJe0-9" value="&lt;p class=&quot;MsoNormal&quot;&gt;Play to Snapshot VM&lt;/p&gt;" style="rounded=1;whiteSpace=wrap;html=1;fontSize=12;glass=0;strokeWidth=1;shadow=0;fillColor=#d5e8d4;strokeColor=#82b366;" parent="nvEJAA1esfdf5cPtqJe0-1" vertex="1">
          <mxGeometry x="680" y="880" width="120" height="40" as="geometry" />
        </mxCell>
        <mxCell id="nvEJAA1esfdf5cPtqJe0-10" value="&lt;p class=&quot;MsoNormal&quot;&gt;Play to run seal script (pre-snapshot tasks)&lt;/p&gt;" style="rounded=1;whiteSpace=wrap;html=1;fontSize=12;glass=0;strokeWidth=1;shadow=0;fillColor=#d5e8d4;strokeColor=#82b366;" parent="nvEJAA1esfdf5cPtqJe0-1" vertex="1">
          <mxGeometry x="680" y="432.5" width="120" height="40" as="geometry" />
        </mxCell>
        <mxCell id="nvEJAA1esfdf5cPtqJe0-11" value="Snapshot Successful?" style="rhombus;whiteSpace=wrap;html=1;shadow=0;fontFamily=Helvetica;fontSize=12;align=center;strokeWidth=1;spacing=6;spacingTop=-4;fillColor=#dae8fc;strokeColor=#6c8ebf;" parent="nvEJAA1esfdf5cPtqJe0-1" vertex="1">
          <mxGeometry x="690" y="960" width="100" height="80" as="geometry" />
        </mxCell>
        <mxCell id="nvEJAA1esfdf5cPtqJe0-12" value="" style="rounded=0;html=1;jettySize=auto;orthogonalLoop=1;fontSize=11;endArrow=block;endFill=0;endSize=8;strokeWidth=1;shadow=0;labelBackgroundColor=none;edgeStyle=orthogonalEdgeStyle;entryX=0.5;entryY=0;entryDx=0;entryDy=0;exitX=0.5;exitY=1;exitDx=0;exitDy=0;" parent="nvEJAA1esfdf5cPtqJe0-1" source="nvEJAA1esfdf5cPtqJe0-9" target="nvEJAA1esfdf5cPtqJe0-11" edge="1">
          <mxGeometry relative="1" as="geometry">
            <mxPoint x="310" y="340" as="sourcePoint" />
            <mxPoint x="210" y="340" as="targetPoint" />
          </mxGeometry>
        </mxCell>
        <mxCell id="nvEJAA1esfdf5cPtqJe0-13" value="&lt;p class=&quot;MsoNormal&quot;&gt;Play to update Machine Catalog&lt;/p&gt;" style="rounded=1;whiteSpace=wrap;html=1;fontSize=12;glass=0;strokeWidth=1;shadow=0;fillColor=#d5e8d4;strokeColor=#82b366;" parent="nvEJAA1esfdf5cPtqJe0-1" vertex="1">
          <mxGeometry x="680" y="1080" width="120" height="40" as="geometry" />
        </mxCell>
        <mxCell id="nvEJAA1esfdf5cPtqJe0-14" value="" style="rounded=0;html=1;jettySize=auto;orthogonalLoop=1;fontSize=11;endArrow=block;endFill=0;endSize=8;strokeWidth=1;shadow=0;labelBackgroundColor=none;edgeStyle=orthogonalEdgeStyle;entryX=0.5;entryY=0;entryDx=0;entryDy=0;exitX=0.5;exitY=1;exitDx=0;exitDy=0;" parent="nvEJAA1esfdf5cPtqJe0-1" source="nvEJAA1esfdf5cPtqJe0-11" target="nvEJAA1esfdf5cPtqJe0-13" edge="1">
          <mxGeometry relative="1" as="geometry">
            <mxPoint x="250" y="460" as="sourcePoint" />
            <mxPoint x="250" y="500" as="targetPoint" />
          </mxGeometry>
        </mxCell>
        <mxCell id="nvEJAA1esfdf5cPtqJe0-15" value="Yes" style="edgeLabel;html=1;align=center;verticalAlign=middle;resizable=0;points=[];" parent="nvEJAA1esfdf5cPtqJe0-14" vertex="1" connectable="0">
          <mxGeometry y="2" relative="1" as="geometry">
            <mxPoint x="-2" y="-7" as="offset" />
          </mxGeometry>
        </mxCell>
        <mxCell id="nvEJAA1esfdf5cPtqJe0-16" value="Machine Catalog updated successfully?" style="rhombus;whiteSpace=wrap;html=1;shadow=0;fontFamily=Helvetica;fontSize=12;align=center;strokeWidth=1;spacing=6;spacingTop=-4;fillColor=#dae8fc;strokeColor=#6c8ebf;" parent="nvEJAA1esfdf5cPtqJe0-1" vertex="1">
          <mxGeometry x="510" y="1060" width="100" height="80" as="geometry" />
        </mxCell>
        <mxCell id="nvEJAA1esfdf5cPtqJe0-18" value="" style="rounded=0;html=1;jettySize=auto;orthogonalLoop=1;fontSize=11;endArrow=block;endFill=0;endSize=8;strokeWidth=1;shadow=0;labelBackgroundColor=none;edgeStyle=orthogonalEdgeStyle;entryX=1;entryY=0.5;entryDx=0;entryDy=0;exitX=0;exitY=0.5;exitDx=0;exitDy=0;" parent="nvEJAA1esfdf5cPtqJe0-1" source="nvEJAA1esfdf5cPtqJe0-13" target="nvEJAA1esfdf5cPtqJe0-16" edge="1">
          <mxGeometry relative="1" as="geometry">
            <mxPoint x="680" y="1102.5" as="sourcePoint" />
            <mxPoint x="680" y="1080" as="targetPoint" />
          </mxGeometry>
        </mxCell>
        <mxCell id="nvEJAA1esfdf5cPtqJe0-19" value="&lt;p class=&quot;MsoNormal&quot;&gt;Power on VM&lt;/p&gt;" style="rounded=1;whiteSpace=wrap;html=1;fontSize=12;glass=0;strokeWidth=1;shadow=0;fillColor=#d5e8d4;strokeColor=#82b366;" parent="nvEJAA1esfdf5cPtqJe0-1" vertex="1">
          <mxGeometry x="320" y="1080" width="120" height="40" as="geometry" />
        </mxCell>
        <mxCell id="nvEJAA1esfdf5cPtqJe0-21" value="" style="rounded=0;html=1;jettySize=auto;orthogonalLoop=1;fontSize=11;endArrow=block;endFill=0;endSize=8;strokeWidth=1;shadow=0;labelBackgroundColor=none;edgeStyle=orthogonalEdgeStyle;entryX=1;entryY=0.5;entryDx=0;entryDy=0;exitX=0;exitY=0.5;exitDx=0;exitDy=0;" parent="nvEJAA1esfdf5cPtqJe0-1" source="nvEJAA1esfdf5cPtqJe0-16" target="nvEJAA1esfdf5cPtqJe0-19" edge="1">
          <mxGeometry relative="1" as="geometry">
            <mxPoint x="570" y="1038" as="sourcePoint" />
            <mxPoint x="400" y="447.5" as="targetPoint" />
          </mxGeometry>
        </mxCell>
        <mxCell id="nvEJAA1esfdf5cPtqJe0-22" value="Yes" style="edgeLabel;html=1;align=center;verticalAlign=middle;resizable=0;points=[];" parent="nvEJAA1esfdf5cPtqJe0-21" vertex="1" connectable="0">
          <mxGeometry x="-0.575" relative="1" as="geometry">
            <mxPoint x="-8" as="offset" />
          </mxGeometry>
        </mxCell>
        <mxCell id="nvEJAA1esfdf5cPtqJe0-31" value="" style="rounded=0;html=1;jettySize=auto;orthogonalLoop=1;fontSize=11;endArrow=block;endFill=0;endSize=8;strokeWidth=1;shadow=0;labelBackgroundColor=none;edgeStyle=orthogonalEdgeStyle;entryX=0.5;entryY=1;entryDx=0;entryDy=0;exitX=0;exitY=0.5;exitDx=0;exitDy=0;" parent="nvEJAA1esfdf5cPtqJe0-1" source="nvEJAA1esfdf5cPtqJe0-11" target="nvEJAA1esfdf5cPtqJe0-8" edge="1">
          <mxGeometry relative="1" as="geometry">
            <mxPoint x="-516" y="195" as="sourcePoint" />
            <mxPoint x="-516" y="235" as="targetPoint" />
            <Array as="points">
              <mxPoint x="560" y="1000" />
            </Array>
          </mxGeometry>
        </mxCell>
        <mxCell id="nvEJAA1esfdf5cPtqJe0-32" value="No" style="edgeLabel;html=1;align=center;verticalAlign=middle;resizable=0;points=[];" parent="nvEJAA1esfdf5cPtqJe0-31" vertex="1" connectable="0">
          <mxGeometry x="-0.05" y="3" relative="1" as="geometry">
            <mxPoint x="73" y="182" as="offset" />
          </mxGeometry>
        </mxCell>
        <mxCell id="nvEJAA1esfdf5cPtqJe0-34" value="" style="rounded=0;html=1;jettySize=auto;orthogonalLoop=1;fontSize=11;endArrow=block;endFill=0;endSize=8;strokeWidth=1;shadow=0;labelBackgroundColor=none;edgeStyle=orthogonalEdgeStyle;entryX=0.5;entryY=1;entryDx=0;entryDy=0;exitX=0;exitY=0.5;exitDx=0;exitDy=0;" parent="nvEJAA1esfdf5cPtqJe0-1" source="nvEJAA1esfdf5cPtqJe0-2" target="nvEJAA1esfdf5cPtqJe0-8" edge="1">
          <mxGeometry relative="1" as="geometry">
            <mxPoint x="-830" y="415" as="sourcePoint" />
            <mxPoint x="-380" y="540" as="targetPoint" />
          </mxGeometry>
        </mxCell>
        <mxCell id="nvEJAA1esfdf5cPtqJe0-35" value="No" style="edgeLabel;html=1;align=center;verticalAlign=middle;resizable=0;points=[];" parent="nvEJAA1esfdf5cPtqJe0-34" vertex="1" connectable="0">
          <mxGeometry x="-0.6857" y="-3" relative="1" as="geometry">
            <mxPoint x="-36" y="3" as="offset" />
          </mxGeometry>
        </mxCell>
        <mxCell id="nvEJAA1esfdf5cPtqJe0-43" value="" style="rounded=0;html=1;jettySize=auto;orthogonalLoop=1;fontSize=11;endArrow=block;endFill=0;endSize=8;strokeWidth=1;shadow=0;labelBackgroundColor=none;edgeStyle=orthogonalEdgeStyle;entryX=1;entryY=0.5;entryDx=0;entryDy=0;exitX=0;exitY=0.5;exitDx=0;exitDy=0;" parent="nvEJAA1esfdf5cPtqJe0-1" source="nvEJAA1esfdf5cPtqJe0-56" target="nvEJAA1esfdf5cPtqJe0-61" edge="1">
          <mxGeometry relative="1" as="geometry">
            <mxPoint x="-110" y="480" as="sourcePoint" />
            <mxPoint x="-380" y="540" as="targetPoint" />
          </mxGeometry>
        </mxCell>
        <mxCell id="nvEJAA1esfdf5cPtqJe0-44" value="No" style="edgeLabel;html=1;align=center;verticalAlign=middle;resizable=0;points=[];" parent="nvEJAA1esfdf5cPtqJe0-43" vertex="1" connectable="0">
          <mxGeometry x="-0.3333" y="3" relative="1" as="geometry">
            <mxPoint x="-10" y="-3" as="offset" />
          </mxGeometry>
        </mxCell>
        <mxCell id="nvEJAA1esfdf5cPtqJe0-47" value="&lt;p class=&quot;MsoNormal&quot;&gt;Service Station Request Submitted (Change Request)&lt;/p&gt;" style="rounded=1;whiteSpace=wrap;html=1;fontSize=12;glass=0;strokeWidth=1;shadow=0;fillColor=#f8cecc;strokeColor=#b85450;" parent="nvEJAA1esfdf5cPtqJe0-1" vertex="1">
          <mxGeometry x="320" y="62.5" width="120" height="40" as="geometry" />
        </mxCell>
        <mxCell id="nvEJAA1esfdf5cPtqJe0-49" value="" style="rounded=0;html=1;jettySize=auto;orthogonalLoop=1;fontSize=11;endArrow=block;endFill=0;endSize=8;strokeWidth=1;shadow=0;labelBackgroundColor=none;edgeStyle=orthogonalEdgeStyle;exitX=1;exitY=0.5;exitDx=0;exitDy=0;entryX=0;entryY=0.5;entryDx=0;entryDy=0;" parent="nvEJAA1esfdf5cPtqJe0-1" target="nvEJAA1esfdf5cPtqJe0-47" edge="1">
          <mxGeometry relative="1" as="geometry">
            <mxPoint x="260" y="82.5" as="sourcePoint" />
            <mxPoint x="330" y="302.5" as="targetPoint" />
            <Array as="points">
              <mxPoint x="300" y="82.5" />
              <mxPoint x="300" y="82.5" />
            </Array>
          </mxGeometry>
        </mxCell>
        <mxCell id="nvEJAA1esfdf5cPtqJe0-50" value="&lt;p class=&quot;MsoNormal&quot;&gt;Service Station Request Approved by Manager(CAB)&lt;/p&gt;" style="rounded=1;whiteSpace=wrap;html=1;fontSize=12;glass=0;strokeWidth=1;shadow=0;fillColor=#f8cecc;strokeColor=#b85450;" parent="nvEJAA1esfdf5cPtqJe0-1" vertex="1">
          <mxGeometry x="500" y="62.5" width="120" height="40" as="geometry" />
        </mxCell>
        <mxCell id="nvEJAA1esfdf5cPtqJe0-51" value="" style="rounded=0;html=1;jettySize=auto;orthogonalLoop=1;fontSize=11;endArrow=block;endFill=0;endSize=8;strokeWidth=1;shadow=0;labelBackgroundColor=none;edgeStyle=orthogonalEdgeStyle;entryX=0;entryY=0.5;entryDx=0;entryDy=0;exitX=1;exitY=0.5;exitDx=0;exitDy=0;" parent="nvEJAA1esfdf5cPtqJe0-1" source="nvEJAA1esfdf5cPtqJe0-47" target="nvEJAA1esfdf5cPtqJe0-50" edge="1">
          <mxGeometry relative="1" as="geometry">
            <mxPoint x="600" y="112.5" as="sourcePoint" />
            <mxPoint x="690" y="622.5" as="targetPoint" />
          </mxGeometry>
        </mxCell>
        <mxCell id="nvEJAA1esfdf5cPtqJe0-52" value="&lt;p class=&quot;MsoNormal&quot;&gt;Service Station Request Approved by Citrix Team&lt;/p&gt;" style="rounded=1;whiteSpace=wrap;html=1;fontSize=12;glass=0;strokeWidth=1;shadow=0;fillColor=#f8cecc;strokeColor=#b85450;" parent="nvEJAA1esfdf5cPtqJe0-1" vertex="1">
          <mxGeometry x="680" y="62.5" width="120" height="40" as="geometry" />
        </mxCell>
        <mxCell id="nvEJAA1esfdf5cPtqJe0-53" value="" style="rounded=0;html=1;jettySize=auto;orthogonalLoop=1;fontSize=11;endArrow=block;endFill=0;endSize=8;strokeWidth=1;shadow=0;labelBackgroundColor=none;edgeStyle=orthogonalEdgeStyle;entryX=0;entryY=0.5;entryDx=0;entryDy=0;exitX=1;exitY=0.5;exitDx=0;exitDy=0;" parent="nvEJAA1esfdf5cPtqJe0-1" source="nvEJAA1esfdf5cPtqJe0-50" target="nvEJAA1esfdf5cPtqJe0-52" edge="1">
          <mxGeometry relative="1" as="geometry">
            <mxPoint x="680" y="682.5" as="sourcePoint" />
            <mxPoint x="760" y="682.5" as="targetPoint" />
          </mxGeometry>
        </mxCell>
        <mxCell id="nvEJAA1esfdf5cPtqJe0-54" value="&lt;p class=&quot;MsoNormal&quot;&gt;API Call to Ansible&lt;/p&gt;" style="rounded=1;whiteSpace=wrap;html=1;fontSize=12;glass=0;strokeWidth=1;shadow=0;fillColor=#f8cecc;strokeColor=#b85450;" parent="nvEJAA1esfdf5cPtqJe0-1" vertex="1">
          <mxGeometry x="680" y="142.5" width="120" height="40" as="geometry" />
        </mxCell>
        <mxCell id="nvEJAA1esfdf5cPtqJe0-55" value="" style="rounded=0;html=1;jettySize=auto;orthogonalLoop=1;fontSize=11;endArrow=block;endFill=0;endSize=8;strokeWidth=1;shadow=0;labelBackgroundColor=none;edgeStyle=orthogonalEdgeStyle;entryX=0.5;entryY=0;entryDx=0;entryDy=0;exitX=0.5;exitY=1;exitDx=0;exitDy=0;" parent="nvEJAA1esfdf5cPtqJe0-1" source="nvEJAA1esfdf5cPtqJe0-52" target="nvEJAA1esfdf5cPtqJe0-54" edge="1">
          <mxGeometry relative="1" as="geometry">
            <mxPoint x="680" y="782.5" as="sourcePoint" />
            <mxPoint x="760" y="782.5" as="targetPoint" />
          </mxGeometry>
        </mxCell>
        <mxCell id="nvEJAA1esfdf5cPtqJe0-56" value="API Call Successful?" style="rhombus;whiteSpace=wrap;html=1;shadow=0;fontFamily=Helvetica;fontSize=12;align=center;strokeWidth=1;spacing=6;spacingTop=-4;fillColor=#dae8fc;strokeColor=#6c8ebf;" parent="nvEJAA1esfdf5cPtqJe0-1" vertex="1">
          <mxGeometry x="690" y="222.5" width="100" height="80" as="geometry" />
        </mxCell>
        <mxCell id="nvEJAA1esfdf5cPtqJe0-57" value="" style="rounded=0;html=1;jettySize=auto;orthogonalLoop=1;fontSize=11;endArrow=block;endFill=0;endSize=8;strokeWidth=1;shadow=0;labelBackgroundColor=none;edgeStyle=orthogonalEdgeStyle;entryX=0.5;entryY=0;entryDx=0;entryDy=0;exitX=0.5;exitY=1;exitDx=0;exitDy=0;" parent="nvEJAA1esfdf5cPtqJe0-1" source="nvEJAA1esfdf5cPtqJe0-54" target="nvEJAA1esfdf5cPtqJe0-56" edge="1">
          <mxGeometry relative="1" as="geometry">
            <mxPoint x="740" y="522.5" as="sourcePoint" />
            <mxPoint x="640" y="522.5" as="targetPoint" />
          </mxGeometry>
        </mxCell>
        <mxCell id="nvEJAA1esfdf5cPtqJe0-58" value="&lt;p class=&quot;MsoNormal&quot;&gt;Ansible Workflow Executed&lt;/p&gt;" style="rounded=1;whiteSpace=wrap;html=1;fontSize=12;glass=0;strokeWidth=1;shadow=0;fillColor=#f5f5f5;fontColor=#333333;strokeColor=#666666;" parent="nvEJAA1esfdf5cPtqJe0-1" vertex="1">
          <mxGeometry x="680" y="342.5" width="120" height="40" as="geometry" />
        </mxCell>
        <mxCell id="nvEJAA1esfdf5cPtqJe0-59" value="Yes" style="rounded=0;html=1;jettySize=auto;orthogonalLoop=1;fontSize=11;endArrow=block;endFill=0;endSize=8;strokeWidth=1;shadow=0;labelBackgroundColor=none;edgeStyle=orthogonalEdgeStyle;exitX=0.5;exitY=1;exitDx=0;exitDy=0;entryX=0.5;entryY=0;entryDx=0;entryDy=0;" parent="nvEJAA1esfdf5cPtqJe0-1" source="nvEJAA1esfdf5cPtqJe0-56" target="nvEJAA1esfdf5cPtqJe0-58" edge="1">
          <mxGeometry x="-0.125" relative="1" as="geometry">
            <mxPoint as="offset" />
          </mxGeometry>
        </mxCell>
        <mxCell id="nvEJAA1esfdf5cPtqJe0-60" value="" style="rounded=0;html=1;jettySize=auto;orthogonalLoop=1;fontSize=11;endArrow=block;endFill=0;endSize=8;strokeWidth=1;shadow=0;labelBackgroundColor=none;edgeStyle=orthogonalEdgeStyle;entryX=0.5;entryY=0;entryDx=0;entryDy=0;exitX=0.5;exitY=1;exitDx=0;exitDy=0;" parent="nvEJAA1esfdf5cPtqJe0-1" source="nvEJAA1esfdf5cPtqJe0-58" target="nvEJAA1esfdf5cPtqJe0-10" edge="1">
          <mxGeometry relative="1" as="geometry">
            <mxPoint x="510" y="112.5" as="sourcePoint" />
            <mxPoint x="840" y="442.5" as="targetPoint" />
          </mxGeometry>
        </mxCell>
        <mxCell id="nvEJAA1esfdf5cPtqJe0-61" value="&lt;p class=&quot;MsoNormal&quot;&gt;SNOW Task set to Open and user notified manual attention required&lt;/p&gt;" style="rounded=1;whiteSpace=wrap;html=1;fontSize=12;glass=0;strokeWidth=1;shadow=0;fillColor=#f8cecc;strokeColor=#b85450;" parent="nvEJAA1esfdf5cPtqJe0-1" vertex="1">
          <mxGeometry x="490" y="232.5" width="140" height="60" as="geometry" />
        </mxCell>
        <mxCell id="nvEJAA1esfdf5cPtqJe0-62" value="" style="rounded=0;html=1;jettySize=auto;orthogonalLoop=1;fontSize=11;endArrow=block;endFill=0;endSize=8;strokeWidth=1;shadow=0;labelBackgroundColor=none;edgeStyle=orthogonalEdgeStyle;entryX=0.5;entryY=1;entryDx=0;entryDy=0;exitX=0.5;exitY=0;exitDx=0;exitDy=0;" parent="nvEJAA1esfdf5cPtqJe0-1" source="nvEJAA1esfdf5cPtqJe0-8" target="nvEJAA1esfdf5cPtqJe0-61" edge="1">
          <mxGeometry relative="1" as="geometry">
            <mxPoint x="370" y="202.5" as="sourcePoint" />
            <mxPoint x="270" y="202.5" as="targetPoint" />
          </mxGeometry>
        </mxCell>
        <mxCell id="nvEJAA1esfdf5cPtqJe0-63" value="" style="rounded=0;html=1;jettySize=auto;orthogonalLoop=1;fontSize=11;endArrow=block;endFill=0;endSize=8;strokeWidth=1;shadow=0;labelBackgroundColor=none;edgeStyle=orthogonalEdgeStyle;entryX=0.5;entryY=0;entryDx=0;entryDy=0;exitX=0.5;exitY=1;exitDx=0;exitDy=0;" parent="nvEJAA1esfdf5cPtqJe0-1" source="nvEJAA1esfdf5cPtqJe0-7" target="nvEJAA1esfdf5cPtqJe0-9" edge="1">
          <mxGeometry relative="1" as="geometry">
            <mxPoint x="80" y="912.5" as="sourcePoint" />
            <mxPoint x="56" y="752.5" as="targetPoint" />
          </mxGeometry>
        </mxCell>
        <mxCell id="nvEJAA1esfdf5cPtqJe0-64" value="Yes" style="edgeLabel;html=1;align=center;verticalAlign=middle;resizable=0;points=[];" parent="nvEJAA1esfdf5cPtqJe0-63" vertex="1" connectable="0">
          <mxGeometry x="-0.05" y="-2" relative="1" as="geometry">
            <mxPoint x="2" y="-6" as="offset" />
          </mxGeometry>
        </mxCell>
        <mxCell id="nvEJAA1esfdf5cPtqJe0-65" value="" style="rounded=0;html=1;jettySize=auto;orthogonalLoop=1;fontSize=11;endArrow=block;endFill=0;endSize=8;strokeWidth=1;shadow=0;labelBackgroundColor=none;edgeStyle=orthogonalEdgeStyle;exitX=0;exitY=0.5;exitDx=0;exitDy=0;entryX=0;entryY=0.5;entryDx=0;entryDy=0;" parent="nvEJAA1esfdf5cPtqJe0-1" source="nvEJAA1esfdf5cPtqJe0-7" target="nvEJAA1esfdf5cPtqJe0-107" edge="1">
          <mxGeometry relative="1" as="geometry">
            <mxPoint x="-980" y="1140" as="sourcePoint" />
            <mxPoint x="540" y="640" as="targetPoint" />
            <Array as="points">
              <mxPoint x="630" y="800" />
              <mxPoint x="630" y="670" />
            </Array>
          </mxGeometry>
        </mxCell>
        <mxCell id="nvEJAA1esfdf5cPtqJe0-66" value="No" style="edgeLabel;html=1;align=center;verticalAlign=middle;resizable=0;points=[];" parent="nvEJAA1esfdf5cPtqJe0-65" vertex="1" connectable="0">
          <mxGeometry x="-0.4921" y="-2" relative="1" as="geometry">
            <mxPoint x="-2" y="-69" as="offset" />
          </mxGeometry>
        </mxCell>
        <mxCell id="nvEJAA1esfdf5cPtqJe0-67" value="" style="rounded=0;html=1;jettySize=auto;orthogonalLoop=1;fontSize=11;endArrow=block;endFill=0;endSize=8;strokeWidth=1;shadow=0;labelBackgroundColor=none;edgeStyle=orthogonalEdgeStyle;entryX=0.5;entryY=1;entryDx=0;entryDy=0;exitX=0.5;exitY=0;exitDx=0;exitDy=0;" parent="nvEJAA1esfdf5cPtqJe0-1" source="nvEJAA1esfdf5cPtqJe0-16" target="nvEJAA1esfdf5cPtqJe0-8" edge="1">
          <mxGeometry relative="1" as="geometry">
            <mxPoint x="-346" y="1150" as="sourcePoint" />
            <mxPoint x="-370" y="990" as="targetPoint" />
          </mxGeometry>
        </mxCell>
        <mxCell id="nvEJAA1esfdf5cPtqJe0-111" value="No" style="edgeLabel;html=1;align=center;verticalAlign=middle;resizable=0;points=[];" parent="nvEJAA1esfdf5cPtqJe0-67" vertex="1" connectable="0">
          <mxGeometry x="-0.8049" y="-2" relative="1" as="geometry">
            <mxPoint x="-2" y="27" as="offset" />
          </mxGeometry>
        </mxCell>
        <mxCell id="nvEJAA1esfdf5cPtqJe0-70" value="END" style="ellipse;whiteSpace=wrap;html=1;fillColor=#f5f5f5;fontColor=#333333;strokeColor=#666666;" parent="nvEJAA1esfdf5cPtqJe0-1" vertex="1">
          <mxGeometry x="294" y="222.5" width="120" height="80" as="geometry" />
        </mxCell>
        <mxCell id="nvEJAA1esfdf5cPtqJe0-71" value="" style="rounded=0;html=1;jettySize=auto;orthogonalLoop=1;fontSize=11;endArrow=block;endFill=0;endSize=8;strokeWidth=1;shadow=0;labelBackgroundColor=none;edgeStyle=orthogonalEdgeStyle;entryX=1;entryY=0.5;entryDx=0;entryDy=0;exitX=0;exitY=0.5;exitDx=0;exitDy=0;" parent="nvEJAA1esfdf5cPtqJe0-1" source="nvEJAA1esfdf5cPtqJe0-61" target="nvEJAA1esfdf5cPtqJe0-70" edge="1">
          <mxGeometry relative="1" as="geometry">
            <mxPoint x="-540" y="640" as="sourcePoint" />
            <mxPoint x="-1000" y="800" as="targetPoint" />
          </mxGeometry>
        </mxCell>
        <mxCell id="nvEJAA1esfdf5cPtqJe0-87" value="Post tasks successful?" style="rhombus;whiteSpace=wrap;html=1;shadow=0;fontFamily=Helvetica;fontSize=12;align=center;strokeWidth=1;spacing=6;spacingTop=-4;fillColor=#dae8fc;strokeColor=#6c8ebf;" parent="nvEJAA1esfdf5cPtqJe0-1" vertex="1">
          <mxGeometry x="120" y="640" width="100" height="80" as="geometry" />
        </mxCell>
        <mxCell id="nvEJAA1esfdf5cPtqJe0-88" value="&lt;p class=&quot;MsoNormal&quot;&gt;Play run to send API to SNOW as successful&lt;/p&gt;" style="rounded=1;whiteSpace=wrap;html=1;fontSize=12;glass=0;strokeWidth=1;shadow=0;fillColor=#d5e8d4;strokeColor=#82b366;" parent="nvEJAA1esfdf5cPtqJe0-1" vertex="1">
          <mxGeometry x="110" y="490" width="120" height="40" as="geometry" />
        </mxCell>
        <mxCell id="nvEJAA1esfdf5cPtqJe0-89" value="&lt;p class=&quot;MsoNormal&quot;&gt;SNOW Task Closed User notified Complete&lt;/p&gt;" style="rounded=1;whiteSpace=wrap;html=1;fontSize=12;glass=0;strokeWidth=1;shadow=0;fillColor=#f8cecc;strokeColor=#b85450;" parent="nvEJAA1esfdf5cPtqJe0-1" vertex="1">
          <mxGeometry x="110" y="392.5" width="120" height="40" as="geometry" />
        </mxCell>
        <mxCell id="nvEJAA1esfdf5cPtqJe0-94" value="" style="rounded=0;html=1;jettySize=auto;orthogonalLoop=1;fontSize=11;endArrow=block;endFill=0;endSize=8;strokeWidth=1;shadow=0;labelBackgroundColor=none;edgeStyle=orthogonalEdgeStyle;exitX=1;exitY=0.5;exitDx=0;exitDy=0;entryX=0.5;entryY=1;entryDx=0;entryDy=0;" parent="nvEJAA1esfdf5cPtqJe0-1" source="nvEJAA1esfdf5cPtqJe0-87" target="nvEJAA1esfdf5cPtqJe0-8" edge="1">
          <mxGeometry relative="1" as="geometry">
            <mxPoint x="-340" y="590" as="sourcePoint" />
            <mxPoint x="-470" y="305" as="targetPoint" />
            <Array as="points">
              <mxPoint x="560" y="680" />
            </Array>
          </mxGeometry>
        </mxCell>
        <mxCell id="nvEJAA1esfdf5cPtqJe0-95" value="No" style="edgeLabel;html=1;align=center;verticalAlign=middle;resizable=0;points=[];" parent="nvEJAA1esfdf5cPtqJe0-94" vertex="1" connectable="0">
          <mxGeometry x="-0.4921" y="-2" relative="1" as="geometry">
            <mxPoint x="21" y="-2" as="offset" />
          </mxGeometry>
        </mxCell>
        <mxCell id="nvEJAA1esfdf5cPtqJe0-98" value="" style="rounded=0;html=1;jettySize=auto;orthogonalLoop=1;fontSize=11;endArrow=block;endFill=0;endSize=8;strokeWidth=1;shadow=0;labelBackgroundColor=none;edgeStyle=orthogonalEdgeStyle;exitX=0.5;exitY=0;exitDx=0;exitDy=0;entryX=0;entryY=0.5;entryDx=0;entryDy=0;" parent="nvEJAA1esfdf5cPtqJe0-1" source="nvEJAA1esfdf5cPtqJe0-89" target="nvEJAA1esfdf5cPtqJe0-70" edge="1">
          <mxGeometry relative="1" as="geometry">
            <mxPoint x="-560" y="750" as="sourcePoint" />
            <mxPoint x="-690" y="465" as="targetPoint" />
            <Array as="points">
              <mxPoint x="180" y="263" />
            </Array>
          </mxGeometry>
        </mxCell>
        <mxCell id="nvEJAA1esfdf5cPtqJe0-0" value="Citrix Catalog Update Workflow" style="ellipse;whiteSpace=wrap;html=1;fillColor=#f5f5f5;fontColor=#333333;strokeColor=#666666;" parent="nvEJAA1esfdf5cPtqJe0-1" vertex="1">
          <mxGeometry x="140" y="42.5" width="120" height="80" as="geometry" />
        </mxCell>
        <mxCell id="nvEJAA1esfdf5cPtqJe0-106" value="&lt;br&gt;" style="rounded=0;html=1;jettySize=auto;orthogonalLoop=1;fontSize=11;endArrow=block;endFill=0;endSize=8;strokeWidth=1;shadow=0;labelBackgroundColor=none;edgeStyle=orthogonalEdgeStyle;exitX=0.5;exitY=1;exitDx=0;exitDy=0;entryX=0.5;entryY=0;entryDx=0;entryDy=0;" parent="nvEJAA1esfdf5cPtqJe0-1" source="nvEJAA1esfdf5cPtqJe0-107" target="nvEJAA1esfdf5cPtqJe0-7" edge="1">
          <mxGeometry x="-0.1431" relative="1" as="geometry">
            <mxPoint as="offset" />
            <mxPoint x="740" y="710" as="sourcePoint" />
            <mxPoint x="610" y="670" as="targetPoint" />
          </mxGeometry>
        </mxCell>
        <mxCell id="nvEJAA1esfdf5cPtqJe0-107" value="&lt;p class=&quot;MsoNormal&quot;&gt;Check if VM is powered off in VCenter&lt;/p&gt;" style="rounded=1;whiteSpace=wrap;html=1;fontSize=12;glass=0;strokeWidth=1;shadow=0;fillColor=#d5e8d4;strokeColor=#82b366;" parent="nvEJAA1esfdf5cPtqJe0-1" vertex="1">
          <mxGeometry x="680" y="650" width="120" height="40" as="geometry" />
        </mxCell>
        <mxCell id="nvEJAA1esfdf5cPtqJe0-109" value="" style="rounded=0;html=1;jettySize=auto;orthogonalLoop=1;fontSize=11;endArrow=block;endFill=0;endSize=8;strokeWidth=1;shadow=0;labelBackgroundColor=none;edgeStyle=orthogonalEdgeStyle;entryX=0.5;entryY=0;entryDx=0;entryDy=0;exitX=0.5;exitY=1;exitDx=0;exitDy=0;" parent="nvEJAA1esfdf5cPtqJe0-1" source="nvEJAA1esfdf5cPtqJe0-2" target="nvEJAA1esfdf5cPtqJe0-107" edge="1">
          <mxGeometry relative="1" as="geometry">
            <mxPoint x="700" y="630" as="sourcePoint" />
            <mxPoint x="700" y="670" as="targetPoint" />
          </mxGeometry>
        </mxCell>
        <mxCell id="nvEJAA1esfdf5cPtqJe0-110" value="Yes" style="edgeLabel;html=1;align=center;verticalAlign=middle;resizable=0;points=[];" parent="nvEJAA1esfdf5cPtqJe0-109" vertex="1" connectable="0">
          <mxGeometry x="-0.05" y="-2" relative="1" as="geometry">
            <mxPoint x="2" y="-6" as="offset" />
          </mxGeometry>
        </mxCell>
        <mxCell id="nvEJAA1esfdf5cPtqJe0-112" value="&lt;p class=&quot;MsoNormal&quot;&gt;Check if VM is Powered on&lt;/p&gt;" style="rounded=1;whiteSpace=wrap;html=1;fontSize=12;glass=0;strokeWidth=1;shadow=0;fillColor=#d5e8d4;strokeColor=#82b366;" parent="nvEJAA1esfdf5cPtqJe0-1" vertex="1">
          <mxGeometry x="110" y="1080" width="120" height="40" as="geometry" />
        </mxCell>
        <mxCell id="nvEJAA1esfdf5cPtqJe0-113" value="" style="rounded=0;html=1;jettySize=auto;orthogonalLoop=1;fontSize=11;endArrow=block;endFill=0;endSize=8;strokeWidth=1;shadow=0;labelBackgroundColor=none;edgeStyle=orthogonalEdgeStyle;entryX=1;entryY=0.5;entryDx=0;entryDy=0;exitX=0;exitY=0.5;exitDx=0;exitDy=0;" parent="nvEJAA1esfdf5cPtqJe0-1" source="nvEJAA1esfdf5cPtqJe0-19" target="nvEJAA1esfdf5cPtqJe0-112" edge="1">
          <mxGeometry relative="1" as="geometry">
            <mxPoint x="230" y="780" as="sourcePoint" />
            <mxPoint x="160" y="780" as="targetPoint" />
          </mxGeometry>
        </mxCell>
        <mxCell id="nvEJAA1esfdf5cPtqJe0-117" value="Is VM on and accessible?" style="rhombus;whiteSpace=wrap;html=1;shadow=0;fontFamily=Helvetica;fontSize=12;align=center;strokeWidth=1;spacing=6;spacingTop=-4;fillColor=#dae8fc;strokeColor=#6c8ebf;" parent="nvEJAA1esfdf5cPtqJe0-1" vertex="1">
          <mxGeometry x="120" y="910" width="100" height="80" as="geometry" />
        </mxCell>
        <mxCell id="nvEJAA1esfdf5cPtqJe0-115" value="" style="rounded=0;html=1;jettySize=auto;orthogonalLoop=1;fontSize=11;endArrow=block;endFill=0;endSize=8;strokeWidth=1;shadow=0;labelBackgroundColor=none;edgeStyle=orthogonalEdgeStyle;entryX=0.5;entryY=1;entryDx=0;entryDy=0;exitX=0.5;exitY=0;exitDx=0;exitDy=0;" parent="nvEJAA1esfdf5cPtqJe0-1" source="nvEJAA1esfdf5cPtqJe0-112" target="nvEJAA1esfdf5cPtqJe0-117" edge="1">
          <mxGeometry relative="1" as="geometry">
            <mxPoint x="190" y="910" as="sourcePoint" />
            <mxPoint x="120" y="910" as="targetPoint" />
          </mxGeometry>
        </mxCell>
        <mxCell id="nvEJAA1esfdf5cPtqJe0-118" value="" style="rounded=0;html=1;jettySize=auto;orthogonalLoop=1;fontSize=11;endArrow=block;endFill=0;endSize=8;strokeWidth=1;shadow=0;labelBackgroundColor=none;edgeStyle=orthogonalEdgeStyle;entryX=0;entryY=0.5;entryDx=0;entryDy=0;exitX=0;exitY=0.5;exitDx=0;exitDy=0;" parent="nvEJAA1esfdf5cPtqJe0-1" source="nvEJAA1esfdf5cPtqJe0-117" target="nvEJAA1esfdf5cPtqJe0-112" edge="1">
          <mxGeometry relative="1" as="geometry">
            <mxPoint x="280" y="740" as="sourcePoint" />
            <mxPoint x="210" y="740" as="targetPoint" />
            <Array as="points">
              <mxPoint x="70" y="950" />
              <mxPoint x="70" y="1100" />
            </Array>
          </mxGeometry>
        </mxCell>
        <mxCell id="nvEJAA1esfdf5cPtqJe0-119" value="No" style="edgeLabel;html=1;align=center;verticalAlign=middle;resizable=0;points=[];" parent="nvEJAA1esfdf5cPtqJe0-118" vertex="1" connectable="0">
          <mxGeometry x="0.0417" y="-4" relative="1" as="geometry">
            <mxPoint as="offset" />
          </mxGeometry>
        </mxCell>
        <mxCell id="nvEJAA1esfdf5cPtqJe0-120" value="&lt;p class=&quot;MsoNormal&quot;&gt;Play for Post catalog update tasks.&lt;/p&gt;" style="rounded=1;whiteSpace=wrap;html=1;fontSize=12;glass=0;strokeWidth=1;shadow=0;fillColor=#d5e8d4;strokeColor=#82b366;" parent="nvEJAA1esfdf5cPtqJe0-1" vertex="1">
          <mxGeometry x="110" y="810" width="120" height="40" as="geometry" />
        </mxCell>
        <mxCell id="nvEJAA1esfdf5cPtqJe0-121" value="" style="rounded=0;html=1;jettySize=auto;orthogonalLoop=1;fontSize=11;endArrow=block;endFill=0;endSize=8;strokeWidth=1;shadow=0;labelBackgroundColor=none;edgeStyle=orthogonalEdgeStyle;entryX=0.5;entryY=1;entryDx=0;entryDy=0;exitX=0.5;exitY=0;exitDx=0;exitDy=0;" parent="nvEJAA1esfdf5cPtqJe0-1" source="nvEJAA1esfdf5cPtqJe0-117" target="nvEJAA1esfdf5cPtqJe0-120" edge="1">
          <mxGeometry relative="1" as="geometry">
            <mxPoint x="290" y="770" as="sourcePoint" />
            <mxPoint x="290" y="680" as="targetPoint" />
          </mxGeometry>
        </mxCell>
        <mxCell id="nvEJAA1esfdf5cPtqJe0-122" value="Yes" style="edgeLabel;html=1;align=center;verticalAlign=middle;resizable=0;points=[];" parent="nvEJAA1esfdf5cPtqJe0-121" vertex="1" connectable="0">
          <mxGeometry x="0.02" y="-1" relative="1" as="geometry">
            <mxPoint as="offset" />
          </mxGeometry>
        </mxCell>
        <mxCell id="nvEJAA1esfdf5cPtqJe0-125" value="" style="rounded=0;html=1;jettySize=auto;orthogonalLoop=1;fontSize=11;endArrow=block;endFill=0;endSize=8;strokeWidth=1;shadow=0;labelBackgroundColor=none;edgeStyle=orthogonalEdgeStyle;exitX=0.5;exitY=0;exitDx=0;exitDy=0;entryX=0.5;entryY=1;entryDx=0;entryDy=0;" parent="nvEJAA1esfdf5cPtqJe0-1" source="nvEJAA1esfdf5cPtqJe0-120" target="nvEJAA1esfdf5cPtqJe0-87" edge="1">
          <mxGeometry relative="1" as="geometry">
            <mxPoint x="100" y="580" as="sourcePoint" />
            <mxPoint x="214" y="450" as="targetPoint" />
            <Array as="points">
              <mxPoint x="170" y="780" />
              <mxPoint x="170" y="780" />
            </Array>
          </mxGeometry>
        </mxCell>
        <mxCell id="nvEJAA1esfdf5cPtqJe0-124" value="" style="rounded=0;html=1;jettySize=auto;orthogonalLoop=1;fontSize=11;endArrow=block;endFill=0;endSize=8;strokeWidth=1;shadow=0;labelBackgroundColor=none;edgeStyle=orthogonalEdgeStyle;exitX=0.5;exitY=0;exitDx=0;exitDy=0;entryX=0.5;entryY=1;entryDx=0;entryDy=0;" parent="nvEJAA1esfdf5cPtqJe0-1" source="nvEJAA1esfdf5cPtqJe0-87" target="nvEJAA1esfdf5cPtqJe0-88" edge="1">
          <mxGeometry relative="1" as="geometry">
            <mxPoint x="80" y="520" as="sourcePoint" />
            <mxPoint x="194" y="390" as="targetPoint" />
            <Array as="points">
              <mxPoint x="170" y="590" />
              <mxPoint x="170" y="590" />
            </Array>
          </mxGeometry>
        </mxCell>
        <mxCell id="nvEJAA1esfdf5cPtqJe0-123" value="" style="rounded=0;html=1;jettySize=auto;orthogonalLoop=1;fontSize=11;endArrow=block;endFill=0;endSize=8;strokeWidth=1;shadow=0;labelBackgroundColor=none;edgeStyle=orthogonalEdgeStyle;exitX=0.5;exitY=0;exitDx=0;exitDy=0;entryX=0.5;entryY=1;entryDx=0;entryDy=0;" parent="nvEJAA1esfdf5cPtqJe0-1" source="nvEJAA1esfdf5cPtqJe0-88" target="nvEJAA1esfdf5cPtqJe0-89" edge="1">
          <mxGeometry relative="1" as="geometry">
            <mxPoint x="40" y="480" as="sourcePoint" />
            <mxPoint x="154" y="350" as="targetPoint" />
            <Array as="points">
              <mxPoint x="170" y="470" />
              <mxPoint x="170" y="470" />
            </Array>
          </mxGeometry>
        </mxCell>
      </root>
    </mxGraphModel>
  </diagram>
</mxfile>
